<svg width="25" height="18" viewBox="0 0 25 18" fill="none" xmlns="http://www.w3.org/2000/svg">
<path d="M8.58661 16.647H1.71584L3.50526 12.422H8.3157L13.667 0H7.92482L3.7002 9.82H6.28636C6.4663 10.12 6.79719 10.33 7.17307 10.33C7.44794 10.3295 7.71141 10.2201 7.90587 10.0257C8.10033 9.83142 8.20994 9.56796 8.21073 9.293C8.21073 8.721 7.74388 8.27 7.17307 8.27C6.7522 8.27 6.40632 8.51 6.24137 8.872H5.00877L8.51063 0.932H12.2694L7.74388 11.474L2.97943 11.504L0.363281 17.58H9.20241L10.36 15.053H14.1938L15.4714 17.579H24.3555L16.3431 0.000999928L8.58661 16.647ZM10.8559 14.061L12.2394 11.038L13.7419 14.061H10.8559ZM16.0722 16.752L15.2005 14.993H17.9366C18.1165 15.323 18.4624 15.549 18.8533 15.549C19.1281 15.5485 19.3916 15.4391 19.5861 15.2447C19.7805 15.0504 19.8901 14.787 19.8909 14.512C19.8904 14.2369 19.7809 13.9732 19.5864 13.7786C19.3919 13.5841 19.1283 13.4745 18.8533 13.474C18.4334 13.474 18.0715 13.73 17.9066 14.091H14.7786L12.6893 10.031L14.2228 6.662L15.9512 10.181H16.7629C16.9279 10.527 17.2888 10.782 17.6946 10.782C17.9695 10.7815 18.233 10.6721 18.4275 10.4777C18.6219 10.2834 18.7315 10.02 18.7323 9.745C18.7318 9.46987 18.6223 9.20616 18.4278 9.01161C18.2333 8.81706 17.9697 8.70753 17.6946 8.707C17.4862 8.707 17.2827 8.77029 17.111 8.88849C16.9392 9.0067 16.8074 9.17425 16.733 9.369H16.4331L14.6436 5.729L16.3421 2.001L23.0169 16.752H16.0722Z" fill="#699BF7"/>
</svg>
