<svg width="25" height="24" viewBox="0 0 25 24" fill="none" xmlns="http://www.w3.org/2000/svg">
<path d="M6.41275 7.76877L2.35199 12L6.41275 16.2313C6.49577 16.3144 6.5647 16.4173 6.61551 16.5341C6.66632 16.6509 6.69799 16.7793 6.70867 16.9116C6.71934 17.0439 6.7088 17.1775 6.67768 17.3046C6.64655 17.4318 6.59545 17.5499 6.52738 17.6521C6.45931 17.7542 6.37562 17.8384 6.28122 17.8996C6.18682 17.9608 6.08361 17.9979 5.97761 18.0087C5.87161 18.0194 5.76497 18.0036 5.66391 17.9622C5.56285 17.9208 5.46942 17.8546 5.38906 17.7675L0.590529 12.7675C0.500488 12.6737 0.428048 12.5562 0.378336 12.4235C0.328625 12.2907 0.302856 12.146 0.302856 11.9994C0.302856 11.8528 0.328625 11.708 0.378336 11.5753C0.428048 11.4426 0.500488 11.3251 0.590529 11.2313L5.38906 6.23127C5.55212 6.06154 5.76243 5.97974 5.97372 6.00389C6.18501 6.02803 6.37997 6.15614 6.51572 6.36002C6.65147 6.56391 6.71688 6.82687 6.69757 7.09106C6.67826 7.35525 6.57581 7.59903 6.41275 7.76877ZM24.0074 11.2313L19.2088 6.23127C19.1281 6.14723 19.0349 6.08389 18.9346 6.04488C18.8343 6.00586 18.7288 5.99193 18.6242 6.00389C18.5196 6.01584 18.4179 6.05345 18.3249 6.11455C18.2319 6.17566 18.1494 6.25907 18.0822 6.36002C17.9464 6.56391 17.881 6.82687 17.9003 7.09106C17.9196 7.35525 18.0221 7.59903 18.1852 7.76877L22.2459 12L18.1852 16.2313C18.1021 16.3144 18.0332 16.4173 17.9824 16.5341C17.9316 16.6509 17.8999 16.7793 17.8892 16.9116C17.8786 17.0439 17.8891 17.1775 17.9202 17.3046C17.9514 17.4318 18.0025 17.5499 18.0705 17.6521C18.1386 17.7542 18.2223 17.8384 18.3167 17.8996C18.4111 17.9608 18.5143 17.9979 18.6203 18.0087C18.7263 18.0194 18.8329 18.0036 18.934 17.9622C19.0351 17.9208 19.1285 17.8546 19.2088 17.7675L24.0074 12.7675C24.0974 12.6737 24.1699 12.5562 24.2196 12.4235C24.2693 12.2907 24.2951 12.146 24.2951 11.9994C24.2951 11.8528 24.2693 11.708 24.2196 11.5753C24.1699 11.4426 24.0974 11.3251 24.0074 11.2313ZM15.7709 0.060033C15.6722 0.0152159 15.5674 -0.00484767 15.4624 0.000987743C15.3575 0.00682315 15.2545 0.0384435 15.1594 0.0940429C15.0642 0.149642 14.9788 0.228132 14.9079 0.32503C14.837 0.421928 14.782 0.535338 14.7462 0.658782L8.34816 22.6588C8.31217 22.7823 8.296 22.9134 8.30059 23.0448C8.30518 23.1761 8.33044 23.305 8.37491 23.4242C8.41939 23.5433 8.48221 23.6503 8.55979 23.739C8.63737 23.8277 8.72817 23.8964 8.82701 23.9412C8.91463 23.9802 9.00694 24.0001 9.09993 24C9.26417 24 9.42443 23.9368 9.55893 23.8189C9.69343 23.7011 9.79565 23.5343 9.8517 23.3412L16.2498 1.34128C16.2856 1.21784 16.3016 1.08678 16.297 0.955582C16.2923 0.824386 16.267 0.695623 16.2226 0.576648C16.1781 0.457672 16.1153 0.350813 16.0378 0.262172C15.9603 0.173531 15.8696 0.104844 15.7709 0.060033Z" fill="#00FF00"/>
</svg>
