<svg width="24" height="21" viewBox="0 0 24 21" fill="none" xmlns="http://www.w3.org/2000/svg">
<path d="M20.6131 15.098V11.9944C20.6131 11.5968 20.443 11.2154 20.1401 10.9343C19.8373 10.6531 19.4265 10.4951 18.9982 10.4951H12.5388V7.49652H19.8057C20.234 7.49652 20.6447 7.33856 20.9476 7.05739C21.2504 6.77621 21.4205 6.39486 21.4205 5.99722V1.4993C21.4205 1.10166 21.2504 0.72031 20.9476 0.439136C20.6447 0.157962 20.234 0 19.8057 0H3.65709C3.22881 0 2.81806 0.157962 2.51522 0.439136C2.21237 0.72031 2.04223 1.10166 2.04223 1.4993V5.99722C2.04223 6.39486 2.21237 6.77621 2.51522 7.05739C2.81806 7.33856 3.22881 7.49652 3.65709 7.49652H10.924V10.4951H4.46452C4.03624 10.4951 3.62549 10.6531 3.32264 10.9343C3.0198 11.2154 2.84966 11.5968 2.84966 11.9944V15.098C2.08853 15.2805 1.42521 15.7144 0.984016 16.3184C0.542827 16.9225 0.354067 17.6552 0.453118 18.3792C0.552169 19.1033 0.93223 19.7689 1.52206 20.2514C2.11189 20.7338 2.871 21 3.65709 21C4.44318 21 5.20229 20.7338 5.79212 20.2514C6.38196 19.7689 6.76202 19.1033 6.86107 18.3792C6.96012 17.6552 6.77136 16.9225 6.33017 16.3184C5.88898 15.7144 5.22565 15.2805 4.46452 15.098V11.9944H10.924V14.993H8.50167V20.9903H14.9611V14.993H12.5388V11.9944H18.9982V15.098C18.2371 15.2805 17.5738 15.7144 17.1326 16.3184C16.6914 16.9225 16.5027 17.6552 16.6017 18.3792C16.7008 19.1033 17.0808 19.7689 17.6706 20.2514C18.2605 20.7338 19.0196 21 19.8057 21C20.5918 21 21.3509 20.7338 21.9407 20.2514C22.5305 19.7689 22.9106 19.1033 23.0097 18.3792C23.1087 17.6552 22.9199 16.9225 22.4788 16.3184C22.0376 15.7144 21.3742 15.2805 20.6131 15.098ZM5.27195 17.9917C5.27195 18.2882 5.17724 18.5781 4.9998 18.8246C4.82236 19.0712 4.57015 19.2634 4.27507 19.3768C3.98 19.4903 3.6553 19.52 3.34205 19.4622C3.0288 19.4043 2.74106 19.2615 2.51522 19.0518C2.28937 18.8421 2.13557 18.575 2.07326 18.2842C2.01095 17.9933 2.04293 17.6919 2.16516 17.4179C2.28738 17.1439 2.49436 16.9098 2.75993 16.745C3.02549 16.5803 3.3377 16.4924 3.65709 16.4924C4.08538 16.4924 4.49613 16.6503 4.79897 16.9315C5.10182 17.2127 5.27195 17.594 5.27195 17.9917ZM13.3462 16.4924V19.491H10.1165V16.4924H13.3462ZM3.65709 5.99722V1.4993H19.8057V5.99722H3.65709ZM19.8057 19.491C19.4863 19.491 19.1741 19.403 18.9085 19.2383C18.6429 19.0735 18.436 18.8394 18.3137 18.5654C18.1915 18.2915 18.1595 17.99 18.2218 17.6992C18.2842 17.4083 18.438 17.1412 18.6638 16.9315C18.8896 16.7218 19.1774 16.579 19.4906 16.5212C19.8039 16.4633 20.1286 16.493 20.4237 16.6065C20.7187 16.72 20.9709 16.9121 21.1484 17.1587C21.3258 17.4052 21.4205 17.6951 21.4205 17.9917C21.4205 18.3893 21.2504 18.7707 20.9476 19.0518C20.6447 19.333 20.234 19.491 19.8057 19.491Z" fill="#FF0000"></path>
</svg>
