<svg width="20" height="25" viewBox="0 0 20 25" fill="none" xmlns="http://www.w3.org/2000/svg">
<path d="M9.99998 14.2855C9.10098 14.2855 8.22216 14.0237 7.47466 13.5331C6.72717 13.0426 6.14457 12.3454 5.80053 11.5296C5.4565 10.7139 5.36648 9.81627 5.54187 8.95028C5.71726 8.0843 6.15017 7.28884 6.78586 6.66449C7.42156 6.04015 8.23148 5.61497 9.11321 5.44272C9.99494 5.27046 10.9089 5.35887 11.7395 5.69676C12.57 6.03465 13.2799 6.60685 13.7794 7.341C14.2788 8.07515 14.5454 8.93827 14.5454 9.82122C14.544 11.0048 14.0646 12.1395 13.2125 12.9764C12.3604 13.8133 11.2051 14.2841 9.99998 14.2855ZM9.99998 7.14265C9.46058 7.14265 8.93329 7.29975 8.48479 7.59407C8.03629 7.8884 7.68673 8.30673 7.48031 8.79618C7.27389 9.28562 7.21988 9.82419 7.32511 10.3438C7.43035 10.8634 7.69009 11.3407 8.07151 11.7153C8.45293 12.0899 8.93888 12.345 9.46792 12.4483C9.99696 12.5517 10.5453 12.4986 11.0437 12.2959C11.542 12.0932 11.9679 11.7498 12.2676 11.3094C12.5673 10.8689 12.7273 10.351 12.7273 9.82122C12.7265 9.11104 12.439 8.43014 11.9277 7.92797C11.4163 7.42579 10.7231 7.14336 9.99998 7.14265Z" fill="white"></path>
<path d="M10 25L2.33092 16.117C2.22435 15.9836 2.1189 15.8494 2.01455 15.7143C0.704538 14.0194 -0.00316471 11.9493 1.0639e-05 9.82143C1.0639e-05 7.21662 1.05358 4.7185 2.92894 2.87663C4.8043 1.03475 7.34784 0 10 0C12.6522 0 15.1957 1.03475 17.0711 2.87663C18.9464 4.7185 20 7.21662 20 9.82143C20.0032 11.9483 19.2958 14.0175 17.9864 15.7116L17.9854 15.7143C17.9854 15.7143 17.7127 16.0661 17.6718 16.1134L10 25ZM3.46637 14.6384C3.46637 14.6384 3.67819 14.9134 3.72637 14.9723L10 22.2393L16.2818 14.9625C16.3218 14.9134 16.5354 14.6357 16.5354 14.6357C17.6056 13.251 18.1839 11.5598 18.1818 9.82143C18.1818 7.69022 17.3198 5.64631 15.7854 4.13932C14.251 2.63233 12.17 1.78571 10 1.78571C7.83005 1.78571 5.74897 2.63233 4.21459 4.13932C2.6802 5.64631 1.81819 7.69022 1.81819 9.82143C1.81628 11.5609 2.39526 13.253 3.46637 14.6384Z" fill="white"></path>
</svg>
