<svg width="22" height="22" viewBox="0 0 22 22" fill="none" xmlns="http://www.w3.org/2000/svg">
<path d="M19.157 16.1736H12.007C11.9268 16.1736 11.7662 16.1736 11.6857 16.2716L6.30332 21.4618C6.22291 21.5596 6.22291 21.6577 6.30332 21.7555C6.30332 21.8535 6.38354 21.8535 6.46396 21.8535H19.2372C20.5227 21.8535 21.6474 20.4825 21.567 18.8177C21.4867 17.2507 20.3619 16.1736 19.157 16.1736Z" fill="#00C9DB"></path>
<path d="M13.3238 10.7061C13.2433 9.92279 12.9221 9.13929 12.44 8.64962L4.16531 0.619442C3.12127 -0.359883 1.67534 -0.164302 0.871958 1.1091C0.0683836 2.38204 0.228827 4.14463 1.27345 5.12396L7.29861 10.9997L1.27326 16.8754C0.229215 17.8549 0.0683836 19.6175 0.871958 20.8912C1.67534 22.1641 3.12127 22.3599 4.1657 21.3806L12.4404 13.1546C13.0027 12.5669 13.324 11.7837 13.324 10.9021L13.3238 10.7061Z" fill="#0D55FF"></path>
<path d="M21.567 19.0135C21.567 20.5803 20.5227 21.8535 19.2373 21.8535C17.952 21.8535 16.9075 20.5803 16.9075 19.0135C16.9075 17.4468 17.952 16.1736 19.2373 16.1736C20.5227 16.1736 21.567 17.4468 21.567 19.0135Z" fill="#7000F2"></path>
</svg>
