<svg width="33" height="32" viewBox="0 0 33 32" fill="none" xmlns="http://www.w3.org/2000/svg">
<path fill-rule="evenodd" clip-rule="evenodd" d="M16.7601 2.66675C24.1241 2.66675 30.0935 8.63608 30.0935 16.0001C30.0935 23.3641 24.1241 29.3334 16.7601 29.3334C9.39614 29.3334 3.4268 23.3641 3.4268 16.0001C3.4268 8.63608 9.39614 2.66675 16.7601 2.66675ZM18.7361 22.5867C17.421 22.6941 16.0993 22.6941 14.7841 22.5867C14.9081 23.1161 15.0468 23.6067 15.1975 24.0561C15.5321 25.0627 15.9041 25.7801 16.2508 26.2187C16.4201 26.4347 16.5575 26.5494 16.6508 26.6054L16.7188 26.6427L16.7588 26.6534L16.8015 26.6427L16.8695 26.6067C17.0242 26.502 17.1595 26.3712 17.2695 26.2201C17.6161 25.7801 17.9881 25.0627 18.3228 24.0561C18.4735 23.6067 18.6121 23.1161 18.7361 22.5867ZM7.16947 20.6734C8.38029 23.1523 10.5016 25.0677 13.0908 26.0201C12.9336 25.653 12.7921 25.2793 12.6668 24.9001C12.3759 24.0129 12.1443 23.1073 11.9735 22.1894C10.3231 21.8553 8.71273 21.3471 7.16947 20.6734ZM26.3521 20.6734C24.8255 21.3401 23.2175 21.8507 21.5455 22.1894C21.3754 23.1079 21.1438 24.014 20.8521 24.9014C20.7241 25.2881 20.5828 25.6641 20.4281 26.0187C23.0182 25.0669 25.1406 23.1514 26.3521 20.6721V20.6734ZM19.3948 14.4947C17.6459 14.7253 15.8743 14.7253 14.1255 14.4947C14.0494 16.2858 14.1122 18.0801 14.3135 19.8614C15.9393 20.0468 17.581 20.0468 19.2068 19.8614C19.3547 18.5796 19.4281 17.2904 19.4268 16.0001C19.4268 15.4881 19.4161 14.9867 19.3948 14.4934V14.4947ZM6.8508 12.0427C6.19892 13.673 5.96073 15.4393 6.15747 17.1841C7.85552 18.1586 9.68043 18.8932 11.5801 19.3667C11.4162 17.5702 11.3832 15.7641 11.4815 13.9627C9.86311 13.5206 8.30719 12.8755 6.8508 12.0427ZM26.6695 12.0427C25.2131 12.8755 23.6572 13.5206 22.0388 13.9627C22.1371 15.7641 22.1041 17.5702 21.9401 19.3667C23.8394 18.8931 25.6638 18.1585 27.3615 17.1841C27.558 15.4398 27.3198 13.674 26.6681 12.0441L26.6695 12.0427ZM16.7815 5.34941L16.7668 5.34675L16.7401 5.35075L16.6895 5.37075C16.5189 5.479 16.3697 5.61776 16.2495 5.78008C15.9028 6.22008 15.5321 6.93741 15.1961 7.94275C14.8361 9.02008 14.5455 10.3427 14.3521 11.8347C15.9498 12.0567 17.5705 12.0567 19.1681 11.8347C18.9748 10.3414 18.6828 9.02008 18.3241 7.94275C17.9881 6.93741 17.6175 6.21875 17.2708 5.78008C17.1604 5.6294 17.0251 5.49864 16.8708 5.39341L16.7815 5.34941ZM13.0908 5.98141C11.1101 6.70935 9.38905 8.00689 8.14414 9.71075C9.26814 10.3561 10.4721 10.8787 11.7375 11.2614C11.9508 9.70941 12.2668 8.29741 12.6668 7.09875C12.7961 6.71075 12.9375 6.33608 13.0908 5.98141ZM20.4295 5.98141C20.5828 6.33608 20.7228 6.71075 20.8535 7.09875C21.2535 8.29875 21.5695 9.70941 21.7828 11.2614C23.0356 10.8826 24.2411 10.3624 25.3761 9.71075C24.1313 8.00684 22.4102 6.70928 20.4295 5.98141Z" fill="#FFFF00"></path>
</svg>
