<svg width="29" height="21" viewBox="0 0 29 21" fill="none" xmlns="http://www.w3.org/2000/svg">
<path d="M25.74 18.2H22.88V6.825L14.3 11.7L5.72 6.825V18.2H2.86V2.6H4.576L14.3 8.125L24.024 2.6H25.74M25.74 0H2.86C1.2727 0 0 1.157 0 2.6V18.2C0 18.8896 0.30132 19.5509 0.837674 20.0385C1.37403 20.5261 2.10148 20.8 2.86 20.8H25.74C26.4985 20.8 27.226 20.5261 27.7623 20.0385C28.2987 19.5509 28.6 18.8896 28.6 18.2V2.6C28.6 1.91044 28.2987 1.24912 27.7623 0.761522C27.226 0.273928 26.4985 0 25.74 0Z" fill="white"></path>
</svg>
